<svg width="107" height="40" viewBox="0 0 107 40" fill="none" xmlns="http://www.w3.org/2000/svg">
<path d="M11.52 30.404L13.888 30.18C13.8453 31.0333 13.9947 31.7053 14.336 32.196C14.6773 32.708 15.168 33.0707 15.808 33.284C16.4693 33.5187 17.2373 33.636 18.112 33.636C18.8587 33.636 19.52 33.5827 20.096 33.476C20.6933 33.3693 21.248 33.2307 21.76 33.06C22.272 32.9107 22.752 32.772 23.2 32.644V36.068C22.5387 36.26 21.8133 36.42 21.024 36.548C20.2347 36.676 19.424 36.74 18.592 36.74C17.1413 36.74 15.872 36.5267 14.784 36.1C13.696 35.6733 12.864 34.9907 12.288 34.052C11.712 33.1347 11.456 31.9187 11.52 30.404ZM12.768 30.82C11.1467 30.82 9.64267 30.5427 8.256 29.988C6.86933 29.412 5.65333 28.612 4.608 27.588C3.584 26.564 2.784 25.3373 2.208 23.908C1.65333 22.4573 1.376 20.868 1.376 19.14C1.376 17.412 1.65333 15.8333 2.208 14.404C2.784 12.9747 3.584 11.748 4.608 10.724C5.65333 9.67867 6.86933 8.87867 8.256 8.324C9.64267 7.748 11.1467 7.46 12.768 7.46C14.368 7.46 15.8613 7.748 17.248 8.324C18.6347 8.87867 19.84 9.67867 20.864 10.724C21.9093 11.748 22.7093 12.9747 23.264 14.404C23.84 15.8333 24.128 17.412 24.128 19.14C24.128 20.868 23.84 22.4573 23.264 23.908C22.7093 25.3373 21.9093 26.564 20.864 27.588C19.84 28.612 18.6347 29.412 17.248 29.988C15.8613 30.5427 14.368 30.82 12.768 30.82ZM12.768 28.74C13.792 28.74 14.7413 28.5267 15.616 28.1C16.4907 27.652 17.2373 27.012 17.856 26.18C18.496 25.348 18.9867 24.3453 19.328 23.172C19.6693 21.9773 19.84 20.6333 19.84 19.14C19.84 17.6467 19.6693 16.3133 19.328 15.14C18.9867 13.9453 18.496 12.932 17.856 12.1C17.2373 11.268 16.4907 10.6387 15.616 10.212C14.7413 9.764 13.792 9.54 12.768 9.54C11.7227 9.54 10.7627 9.764 9.888 10.212C9.03467 10.6387 8.288 11.268 7.648 12.1C7.008 12.932 6.51733 13.9453 6.176 15.14C5.83467 16.3133 5.664 17.6467 5.664 19.14C5.664 20.6333 5.83467 21.9773 6.176 23.172C6.51733 24.3453 7.008 25.348 7.648 26.18C8.288 27.012 9.03467 27.652 9.888 28.1C10.7627 28.5267 11.7227 28.74 12.768 28.74ZM37.5655 20.644V22.308C36.6055 22.4147 35.7522 22.5533 35.0055 22.724C34.2588 22.8733 33.6082 23.0653 33.0535 23.3C32.4988 23.5347 32.0508 23.8013 31.7095 24.1C31.3682 24.3987 31.1015 24.74 30.9095 25.124C30.7388 25.508 30.6535 25.9347 30.6535 26.404C30.6535 26.916 30.7602 27.364 30.9735 27.748C31.1868 28.1107 31.4855 28.388 31.8695 28.58C32.2535 28.772 32.7015 28.868 33.2135 28.868C33.8748 28.868 34.4615 28.708 34.9735 28.388C35.5068 28.068 35.9762 27.6093 36.3815 27.012C36.7868 26.4147 37.1495 25.7107 37.4695 24.9L37.5335 27.012C37.2135 27.8013 36.7868 28.484 36.2535 29.06C35.7415 29.6147 35.1335 30.052 34.4295 30.372C33.7255 30.6707 32.9148 30.82 31.9975 30.82C31.0375 30.82 30.1628 30.6493 29.3735 30.308C28.6055 29.9667 27.9975 29.476 27.5495 28.836C27.1015 28.1747 26.8775 27.396 26.8775 26.5C26.8775 25.6253 27.1015 24.868 27.5495 24.228C27.9975 23.5667 28.6695 23.012 29.5655 22.564C30.4828 22.0947 31.6028 21.7107 32.9255 21.412C34.2482 21.092 35.7948 20.836 37.5655 20.644ZM37.0855 30.5V27.172L36.7335 27.14V19.044C36.7335 18.2547 36.6162 17.6253 36.3815 17.156C36.1682 16.6653 35.8482 16.324 35.4215 16.132C34.9948 15.9187 34.4615 15.812 33.8215 15.812C32.8615 15.812 32.0722 16.0147 31.4535 16.42C30.8348 16.804 30.3442 17.2733 29.9815 17.828C29.8962 17.5933 29.8748 17.3693 29.9175 17.156C29.9602 16.9427 30.0348 16.7507 30.1415 16.58C30.2695 16.388 30.4295 16.2387 30.6215 16.132C30.8135 16.004 31.0268 15.8973 31.2615 15.812V19.172H27.9015V15.844C28.2215 15.588 28.6695 15.3107 29.2455 15.012C29.8215 14.692 30.5255 14.4253 31.3575 14.212C32.1895 13.9773 33.1282 13.86 34.1735 13.86C35.0482 13.86 35.8588 13.956 36.6055 14.148C37.3735 14.3187 38.0455 14.6173 38.6215 15.044C39.2188 15.4493 39.6775 15.9933 39.9975 16.676C40.3388 17.3373 40.5095 18.1587 40.5095 19.14V27.812C40.5095 28.068 40.6055 28.2813 40.7975 28.452C41.0108 28.6013 41.2775 28.708 41.5975 28.772C41.9388 28.836 42.3335 28.8787 42.7815 28.9H42.8455V30.5H37.0855ZM43.1928 16.1V14.34H43.3208C43.9181 14.34 44.4194 14.2973 44.8248 14.212C45.2514 14.1267 45.5714 13.9667 45.7848 13.732C46.0194 13.4973 46.1368 13.1667 46.1368 12.74L48.5368 14.18H54.2968V16.1H43.1928ZM49.7208 24.996C49.7208 25.892 49.8274 26.6173 50.0408 27.172C50.2754 27.7053 50.5954 28.1 51.0008 28.356C51.4061 28.5907 51.8861 28.708 52.4408 28.708C52.8888 28.708 53.3048 28.6653 53.6888 28.58C54.0728 28.4947 54.3821 28.4093 54.6168 28.324V30.308C54.4248 30.3933 54.1794 30.468 53.8808 30.532C53.6034 30.6173 53.2834 30.6813 52.9208 30.724C52.5794 30.788 52.1954 30.82 51.7688 30.82C50.7234 30.82 49.7528 30.6493 48.8568 30.308C47.9608 29.9667 47.2354 29.3693 46.6808 28.516C46.1474 27.6627 45.8808 26.5 45.8808 25.028V14.66L46.1368 14.436L46.1688 9.732H49.7208V24.996ZM73.531 22.34C73.531 24.004 73.1577 25.476 72.411 26.756C71.6857 28.036 70.6723 29.0387 69.371 29.764C68.0697 30.468 66.5657 30.82 64.859 30.82C63.1523 30.82 61.6377 30.468 60.315 29.764C59.0137 29.0387 58.0003 28.036 57.275 26.756C56.5497 25.476 56.187 24.004 56.187 22.34C56.187 21.1027 56.3897 19.9613 56.795 18.916C57.2217 17.8707 57.819 16.9747 58.587 16.228C59.3763 15.4813 60.2937 14.9053 61.339 14.5C62.4057 14.0733 63.579 13.86 64.859 13.86C66.139 13.86 67.3017 14.0733 68.347 14.5C69.4137 14.9053 70.331 15.4813 71.099 16.228C71.8883 16.9747 72.4857 17.8707 72.891 18.916C73.3177 19.9613 73.531 21.1027 73.531 22.34ZM60.187 22.34C60.187 23.684 60.3683 24.8467 60.731 25.828C61.115 26.8093 61.659 27.5667 62.363 28.1C63.067 28.612 63.899 28.868 64.859 28.868C65.8403 28.868 66.6723 28.612 67.355 28.1C68.059 27.5667 68.5923 26.8093 68.955 25.828C69.339 24.8467 69.531 23.684 69.531 22.34C69.531 20.9747 69.339 19.812 68.955 18.852C68.5923 17.8707 68.059 17.124 67.355 16.612C66.6723 16.1 65.8403 15.844 64.859 15.844C63.899 15.844 63.067 16.1 62.363 16.612C61.659 17.124 61.115 17.8707 60.731 18.852C60.3683 19.812 60.187 20.9747 60.187 22.34ZM75.0678 16.1V14.34H75.1958C75.7931 14.34 76.2944 14.2973 76.6998 14.212C77.1264 14.1267 77.4464 13.9667 77.6598 13.732C77.8944 13.4973 78.0118 13.1667 78.0118 12.74L80.4118 14.18H86.1718V16.1H75.0678ZM81.5958 24.996C81.5958 25.892 81.7024 26.6173 81.9158 27.172C82.1504 27.7053 82.4704 28.1 82.8758 28.356C83.2811 28.5907 83.7611 28.708 84.3158 28.708C84.7638 28.708 85.1798 28.6653 85.5638 28.58C85.9478 28.4947 86.2571 28.4093 86.4918 28.324V30.308C86.2998 30.3933 86.0544 30.468 85.7558 30.532C85.4784 30.6173 85.1584 30.6813 84.7958 30.724C84.4544 30.788 84.0704 30.82 83.6438 30.82C82.5984 30.82 81.6278 30.6493 80.7318 30.308C79.8358 29.9667 79.1104 29.3693 78.5558 28.516C78.0224 27.6627 77.7558 26.5 77.7558 25.028V14.66L78.0118 14.436L78.0438 9.732H81.5958V24.996ZM105.406 22.34C105.406 24.004 105.033 25.476 104.286 26.756C103.561 28.036 102.547 29.0387 101.246 29.764C99.9447 30.468 98.4407 30.82 96.734 30.82C95.0273 30.82 93.5127 30.468 92.19 29.764C90.8887 29.0387 89.8753 28.036 89.15 26.756C88.4247 25.476 88.062 24.004 88.062 22.34C88.062 21.1027 88.2647 19.9613 88.67 18.916C89.0967 17.8707 89.694 16.9747 90.462 16.228C91.2513 15.4813 92.1687 14.9053 93.214 14.5C94.2807 14.0733 95.454 13.86 96.734 13.86C98.014 13.86 99.1767 14.0733 100.222 14.5C101.289 14.9053 102.206 15.4813 102.974 16.228C103.763 16.9747 104.361 17.8707 104.766 18.916C105.193 19.9613 105.406 21.1027 105.406 22.34ZM92.062 22.34C92.062 23.684 92.2433 24.8467 92.606 25.828C92.99 26.8093 93.534 27.5667 94.238 28.1C94.942 28.612 95.774 28.868 96.734 28.868C97.7153 28.868 98.5473 28.612 99.23 28.1C99.934 27.5667 100.467 26.8093 100.83 25.828C101.214 24.8467 101.406 23.684 101.406 22.34C101.406 20.9747 101.214 19.812 100.83 18.852C100.467 17.8707 99.934 17.124 99.23 16.612C98.5473 16.1 97.7153 15.844 96.734 15.844C95.774 15.844 94.942 16.1 94.238 16.612C93.534 17.124 92.99 17.8707 92.606 18.852C92.2433 19.812 92.062 20.9747 92.062 22.34Z" fill="#00696E"/>
</svg>
